<?xml version="1.0" encoding="UTF-8"?>
<svg id="Layer_1" data-name="Layer 1" xmlns="http://www.w3.org/2000/svg" viewBox="0 0 14.95 3.88">
  <defs>
    <style>
      .cls-1 {
        fill: #2aace2;
      }

      .cls-2, .cls-3 {
        isolation: isolate;
      }

      .cls-3 {
        fill: #fff;
        font-family: FranklinGothic-Medium, 'Franklin Gothic Medium';
        font-size: 3.1px;
        font-weight: 500;
        letter-spacing: .02em;
      }
    </style>
  </defs>
  <g class="cls-2">
    <text class="cls-3" transform="translate(4.56 2.93) scale(.81 1)"><tspan x="0" y="0">Filmcode</tspan></text>
  </g>
  <g>
    <path class="cls-1" d="m1.89,0C.84,0,0,.85,0,1.9s.84,1.9,1.89,1.9,1.89-.85,1.89-1.9-.84-1.9-1.89-1.9ZM.27,1.57c0-.24.19-.43.43-.43s.43.19.43.43-.19.43-.43.43-.43-.19-.43-.43Zm.85,1.77c-.24,0-.43-.19-.43-.43s.19-.43.43-.43.43.19.43.43-.19.43-.43.43Zm.76-1.17c-.14,0-.26-.12-.26-.26s.12-.26.26-.26.26.12.26.26-.12.26-.26.26Zm0-1.08c-.24,0-.43-.19-.43-.43s.19-.43.43-.43.43.19.43.43-.19.43-.43.43Zm.85,2.25c-.24,0-.43-.19-.43-.43s.19-.43.43-.43.43.19.43.43-.19.43-.43.43Zm.32-1.34c-.24,0-.43-.19-.43-.43s.19-.43.43-.43.43.19.43.43-.19.43-.43.43Z"/>
    <path class="cls-1" d="m3.42,2.93s.04.03.07.04c.07.03.12,0,.23,0,.01,0,.07,0,.13.03.08.03.14.07.17.09.07.04.1.09.13.12.07.07.1.12.1.18,0,0,0,.04-.04.07-.04.03-.11,0-.11,0-.04-.02-.04-.04-.08-.1-.05-.07-.11-.11-.12-.12-.05-.04-.1-.05-.13-.06-.04,0-.07-.01-.1-.01-.09,0-.09.01-.16,0-.07,0-.12-.03-.14-.04-.03-.01-.05-.03-.07-.04"/>
  </g>
</svg>